<?xml version="1.0" encoding="UTF-8"?>
<svg width="43px" height="42px" viewBox="0 0 43 42" version="1.1" xmlns="http://www.w3.org/2000/svg" xmlns:xlink="http://www.w3.org/1999/xlink">
    <!-- Generator: Sketch 54.1 (76490) - https://sketchapp.com -->
    <title>Group 16</title>
    <desc>Created with Sketch.</desc>
    <g id="Page-1" stroke="none" stroke-width="1" fill="none" fill-rule="evenodd">
        <g id="nav-home-page-" transform="translate(-1286.000000, -4213.000000)">
            <g id="footer" transform="translate(-1.000000, 4026.000000)">
                <g id="Social">
                    <g transform="translate(1079.000000, 187.000000)">
                        <g id="Group-16" transform="translate(209.146269, 0.891304)">
                            <ellipse id="Oval-4" stroke="#D6D5D5" stroke-width="0.9" cx="20.2835821" cy="20.0543478" rx="20.2835821" ry="20.0543478"></ellipse>
                            <path d="M15.7761194,24.0652174 C13.5356568,24.0652174 11.719403,22.2694899 11.719403,20.0543478 C11.719403,17.8392057 13.5356568,16.0434783 15.7761194,16.0434783 C18.016582,16.0434783 19.8328358,17.8392057 19.8328358,20.0543478 C19.8328358,22.2694899 18.016582,24.0652174 15.7761194,24.0652174 Z M24.7910448,24.0652174 C22.5505822,24.0652174 20.7343284,22.2694899 20.7343284,20.0543478 C20.7343284,17.8392057 22.5505822,16.0434783 24.7910448,16.0434783 C27.0315074,16.0434783 28.8477612,17.8392057 28.8477612,20.0543478 C28.8477612,22.2694899 27.0315074,24.0652174 24.7910448,24.0652174 Z" id="Flickr" fill="#B7B7B7" fill-rule="nonzero"></path>
                        </g>
                    </g>
                </g>
            </g>
        </g>
    </g>
</svg>