<?xml version="1.0" encoding="UTF-8" standalone="no"?>
<svg
   xmlns:dc="http://purl.org/dc/elements/1.1/"
   xmlns:cc="http://creativecommons.org/ns#"
   xmlns:rdf="http://www.w3.org/1999/02/22-rdf-syntax-ns#"
   xmlns:svg="http://www.w3.org/2000/svg"
   xmlns="http://www.w3.org/2000/svg"
   viewBox="0 0 452.95999 97.973335"
   height="97.973335"
   width="452.95999"
   xml:space="preserve"
   id="svg2"
   version="1.1"><metadata
     id="metadata8"><rdf:RDF><cc:Work
         rdf:about=""><dc:format>image/svg+xml</dc:format><dc:type
           rdf:resource="http://purl.org/dc/dcmitype/StillImage" /></cc:Work></rdf:RDF></metadata><defs
     id="defs6" /><g
     transform="matrix(1.3333333,0,0,-1.3333333,0,97.973333)"
     id="g10"><g
       transform="scale(0.1)"
       id="g12"><path
         id="path14"
         style="fill:#100f0d;fill-opacity:1;fill-rule:nonzero;stroke:none"
         d="m 1640.2,678.945 c 0,0 -43.76,-17.547 -94.85,-73.828 -51.29,-56.445 -80.68,-119.59 -58.79,-136.277 8.47,-6.485 27.9,-7.512 63.31,24.355 27.68,24.793 55.8,57.246 74.78,103.77 22.86,55.742 15.55,81.336 15.55,81.98 m 279.54,-101.086 c -56.76,28.977 -98.3,64.496 -141.42,86.704 -41.21,21.093 -67.71,29.89 -100.98,25.437 -5.59,-0.75 -13.73,-3.496 -13.73,-3.496 0,0 17.27,-58.418 -51.07,-156.816 -69.02,-99.629 -131.56,-99.161 -149.39,-71.575 -18.67,28.86 5.38,87.825 45.51,140.305 42.16,54.777 116.09,100.324 116.09,100.324 0,0 -23.49,14.375 -81.44,-18.457 -56.44,-32.023 -153.97,-108.168 -244.12,-236.664 -90.02,-128.328 -108.05,-199.051 -120.93,-254.734 -12.97,-55.528 -1.07,-115.2542 60.53,-115.2542 61.7,0 133.39,94.2192 153.66,126.9412 37.66,60.949 62.13,154.465 11.04,141.594 -25.32,-6.379 -45.82,-34.453 -58.57,-61.223 -13.31,-27.683 -18.56,-54.129 -18.56,-54.129 0,0 -21.37,-7.625 -50.03,-29.035 -28.64,-21.453 -47.42,-41.953 -47.42,-41.953 0,0 0.22,44.485 35.73,116.43 35.31,72.012 100.34,104.89 137.24,107.957 33.28,2.781 76.42,-25.438 39.93,-129.578 C 1405.32,146.555 1297.27,20.4219 1183.84,18.5859 1079,17.1953 1010.44,150.898 1156.16,384.063 c 161.07,258.019 350.35,337.16 411.84,346.054 61.38,8.86 81.43,-18.23 81.43,-18.23 0,0 51.41,23.816 116.66,19.375 75.21,-5.157 133.26,-58.223 209.77,-95.449 -20.06,-19.375 -39.06,-39.336 -56.12,-57.954 m 336.93,86.918 c -51.92,-33.371 -123.82,-63.625 -193.04,-57.082 -17.48,-18.086 -36.17,-38.894 -55.05,-61.867 120.08,-23.601 224.92,50.649 280.82,113.957 34.77,39.492 51.93,74.797 51.93,74.797 0,0 -33.25,-36.75 -84.66,-69.805 M 2097.23,326.875 c 1.61,2.629 2.13,5.039 2.13,5.039 0,0 -1.18,10.098 -10.93,10.52 -11.39,0.425 -26.94,-1.711 -67.72,-46.946 -40.68,-45.019 -65.34,-84.121 -86.8,-123.293 -23.4,-42.652 -32.84,-74.4684 -19.32,-82.7302 3.76,-2.3632 9.54,-2.5195 14.16,-1.4453 9.01,2.3008 19.33,10.7813 35.09,28.9145 7.41,8.476 15.46,20.554 25.23,33.964 26.93,36.75 94.74,152.637 108.16,175.977 m -424.3,-49.355 c 6.87,17.812 15.46,52.793 -2.67,66.425 -19.31,14.7 -68.8,-19.59 -69,-54.726 -0.23,-35.852 34.88,-52.149 43.35,-54.356 4.82,-1.394 6.43,-1.179 8.8,2.688 1.4,2.515 12.76,22.105 19.52,39.969 m -37.22,-65.403 c -1.4,0.434 -17.4,7.727 -34.02,21.567 -16.63,13.843 -25.01,29.722 -25.65,31.011 -0.64,1.184 -1.39,0.266 -2.15,-0.75 -0.64,-0.965 -3.74,-3.652 -30.03,-42.39 -26.41,-38.735 -66.86,-118.782 -30.15,-132.2972 23.5,-8.6445 62.54,32.3512 83.8,59.6602 19.74,25.32 38.31,57.508 39.38,59.871 1.07,2.258 0.1,2.844 -1.18,3.328 m 415.37,-92.281 c -9.87,-15.832 -21.13,-46.418 11.69,-27.3165 39.81,23.1835 96.89,109.6095 96.89,109.6095 h 25.77 c 0,0 -33.91,-53.762 -78.12,-102.7931 -40.66,-44.9609 -90.14,-85.7304 -124.91,-81.8086 -40.76,4.8672 -28,58.254 -28,58.254 0,0 -58.38,-62.0313 -98.62,-57.7344 -54.29,6.1133 -37.77,73.4062 -37.77,73.4062 0,0 -61.48,-75.6914 -103.33,-73.4062 -65.67,3.9765 -49.25,84.1871 -31,140.1951 9.75,30.059 18.98,53.77 18.98,53.77 0,0 -6.65,-1.778 -20.71,-3.758 -7.2,-1.074 -20.61,-1.828 -20.61,-1.828 0,0 -27.24,-48.34 -49.13,-77.41 -21.9,-29.1332 -114.83,-129.094125 -169.65,-108.9769 -50.65,18.3515 -33.91,96.0469 -4.51,157.5199 43.04,89.824 163.96,218.906 233.7,202.004 72.23,-17.54 1.61,-149.583 1.61,-149.583 0,0 0.12,-0.429 0.76,-0.695 1.51,-0.652 5.25,-1.023 13.96,0.695 13.83,2.629 26.5,7.95 26.5,7.95 0,0 72.64,152.258 152.89,251.894 80.28,99.621 240.48,271.309 303.36,229.785 15.46,-10.136 8.48,-45.339 -12.24,-87.988 -9.22,-2.898 -18.67,-5.469 -28.42,-7.461 13.95,25.117 23.06,46.309 25.75,61.164 9.44,51.406 -110.74,-57.031 -196.58,-173.879 C 1873.6,394.59 1822.08,288.84 1822.08,288.84 c 0,0 17.4,9.82 44.33,31.601 28.23,22.696 66.86,58.321 108.92,101.825 28.42,29.297 61.69,66.101 92.93,107.199 9.23,0.484 18.34,1.394 27.24,2.793 -34.77,-46.778 -71.25,-89.602 -102.36,-121.035 -34.12,-34.614 -71.14,-71.953 -103.56,-99.106 -51.17,-43.125 -90.76,-67.547 -90.76,-67.547 0,0 -75.12,-151.3473 -34.34,-161.0622 24.02,-5.7344 71.47,67.3902 71.47,67.3902 0,0 61.79,94.375 99.14,136.875 50.76,57.879 94.64,91.36 138.42,91.954 25.54,0.527 40.57,-26.661 40.57,-26.661 l 11.9,18.555 h 74.03 c 0,0 -137.76,-234.133 -148.93,-251.785 m 205.59,544.941 c -51.92,-33.371 -123.82,-63.625 -193.04,-57.082 -17.48,-18.086 -36.17,-38.894 -55.05,-61.867 120.08,-23.601 224.92,50.649 280.82,113.957 34.77,39.492 51.93,74.797 51.93,74.797 0,0 -33.25,-36.75 -84.66,-69.805 M 1219.57,549.426 h -70.28 l -39.69,-64.278 h 70.27 z M 887.039,327.09 c 29.84,40.937 112.344,184.512 112.344,184.512 0,0 -1.492,10.089 -11.149,10.515 -11.379,0.481 -30.265,-3.328 -68.136,-50.652 -37.887,-47.313 -67.071,-85.086 -88.418,-124.199 -23.407,-42.762 -33.7,-72.969 -20.18,-81.067 3.641,-2.312 9.559,-2.586 14.055,-1.504 8.8,2.141 20.281,10.95 35.949,29.133 7.289,8.527 15.766,19.856 25.535,33.262 M 509.984,520.996 c -19.433,14.699 -68.793,-19.695 -69.007,-54.726 -0.313,-36.004 44.652,-46.25 50.332,-46.465 0,0 5.043,-1.399 7.078,2.898 1.281,2.629 7.293,13.949 14.172,31.762 6.754,17.859 15.437,52.851 -2.575,66.531 m -29.3,-123.719 c -1.184,0.371 -19.957,5.731 -38.102,17.325 -18.129,11.687 -26.484,28.964 -27.144,30.144 -0.754,1.133 -1.395,0.274 -2.133,-0.742 -0.758,-0.977 -4.731,-6.016 -31.028,-44.746 -26.39,-38.738 -65.441,-118.145 -28.851,-131.731 23.48,-8.679 62.863,32.582 84.113,59.836 19.738,25.325 43.359,64.219 44.324,66.465 0.973,2.363 0.098,2.902 -1.179,3.449 m 574.076,-23.672 h 25.75 c 0,0 -128.881,-186.378 -201.733,-177.96 -40.886,4.668 -28.867,54.941 -28.867,54.941 0,0 -57.086,-66.965 -109.441,-53.652 -47.543,12.175 -16.848,91.367 -16.848,91.367 -5.488,-2.141 -108.484,-118.36 -180.719,-90.52 -75.636,29.25 -36.468,126.41 -22.097,155.598 12.246,24.629 25.648,48.723 25.648,48.723 0,0 -11.59,-3.332 -18.769,-4.993 -7.192,-1.668 -18.246,-3.808 -18.246,-3.808 0,0 -35.735,-58.223 -57.625,-87.293 -21.782,-29.035 -114.805,-128.977 -169.645,-109.074 -54.836,19.953 -41.32,96.621 -10.527,157.519 49.91,98.887 168.363,220.242 239.617,202.168 72.113,-18.406 12.57,-135.422 12.57,-135.422 0,0 14.363,-1.824 48.703,21.621 49.465,33.75 114.715,124.641 185.426,114.016 33.258,-4.941 64.168,-39.063 21.895,-103.816 -13.532,-20.715 -36.278,-39.387 -53.77,-21.036 -10.723,11.368 -1.277,32.196 10.086,46.512 15.992,20.227 38.098,17.442 38.098,17.442 0,0 11.695,26.816 -17.918,26.347 -24.157,-0.547 -84.883,-56.609 -119.325,-113.32 -31.546,-51.992 -79.187,-140.676 -31.218,-159.942 43.883,-17.761 127.57,81.668 166.312,133.594 38.645,52.16 126.946,170.196 200.992,175.125 25.325,1.613 40.661,-21.676 40.661,-21.676 l 8.57,13.575 h 73.94 c 0,0 -139.382,-232.903 -150.335,-250.559 -8.566,-13.84 -19.949,-44.844 11.598,-27.41 31.547,17.488 97.217,101.933 97.217,101.933 M 1014.63,0.449219 C 958.512,39.8242 890.375,57.1094 828.348,54.7461 765.68,52.0781 737.563,5.34375 737.563,5.34375 709.23,54.7461 653.336,84.9609 566.945,84.2695 427.453,82.6094 289.145,18.0469 179.48,18.0469 74.3086,18.0469 -2.51563,84.2695 0.0625,201.602 c 4.40234,205.644 178.3355,391.23 308.1835,474.66 74.785,48.125 137.344,62.285 178.234,57.734 29.825,-3.332 65.77,-37.773 43.125,-88.586 -33.253,-74.414 -79.191,-68.293 -77.46,-32.629 0.847,23.032 16.3,37.621 27.898,45.559 7.289,5.098 20.266,6.543 27.148,6.711 6.438,5.574 11.481,46.191 -42.058,32.781 C 411.574,684.414 347.09,631.945 285.695,564.07 224.324,496.309 128.832,367.871 105.215,233.035 94.1641,170.586 101.57,56.7383 249.535,57.9609 375.102,59.043 560.301,141.824 730.488,140.273 796.586,139.734 854.098,121.984 898.848,94.1328 943.055,66.9844 995.859,27.4414 1014.63,0.449219" /><path
         id="path16"
         style="fill:#100f0d;fill-opacity:1;fill-rule:nonzero;stroke:none"
         d="M 2454.18,294.023 V 5.21484 h -40.12 V 294.023 h 40.12" /><path
         id="path18"
         style="fill:#100f0d;fill-opacity:1;fill-rule:nonzero;stroke:none"
         d="m 2706.48,206.379 c 16.31,-15.109 24.47,-35.363 24.47,-60.774 V 5.21484 h -38.51 V 138.391 c 0,17.105 -5.08,30.547 -15.24,40.308 -10.17,9.758 -24.6,14.641 -43.32,14.641 -13.37,0 -25.27,-2.539 -35.7,-7.617 -10.43,-5.078 -18.52,-11.973 -24.26,-20.657 -5.77,-8.699 -8.64,-18.523 -8.64,-29.48 V 5.21484 h -38.5 V 223.828 h 36.5 v -30.09 c 9.09,12.309 20.46,21.262 34.09,26.887 13.64,5.613 28.22,8.418 43.73,8.418 27.28,0 49.07,-7.559 65.38,-22.664" /><path
         id="path20"
         style="fill:#100f0d;fill-opacity:1;fill-rule:nonzero;stroke:none"
         d="m 2932.71,45.1289 c 12.04,6.5508 21.6,15.9063 28.69,28.0742 7.08,12.168 10.63,26.0078 10.63,41.5239 0,15.507 -3.55,29.277 -10.63,41.308 -7.09,12.039 -16.65,21.328 -28.69,27.883 -12.03,6.551 -25.26,9.82 -39.7,9.82 -14.71,0 -27.88,-3.406 -39.51,-10.222 -11.64,-6.817 -20.73,-16.239 -27.28,-28.282 -6.55,-12.031 -9.83,-25.539 -9.83,-40.507 0,-15.2426 3.28,-28.8872 9.83,-40.9184 6.55,-12.0313 15.64,-21.4531 27.28,-28.2813 11.63,-6.8164 24.8,-10.2226 39.51,-10.2226 14.44,0 27.67,3.2695 39.7,9.8242 z m 76.63,261.7341 V 5.21484 h -36.51 V 41.7188 c -9.36,-13.1055 -21.2,-23.3282 -35.5,-30.6836 C 2923.02,3.68359 2906.78,0 2888.59,0 c -21.39,0 -40.51,5.01953 -57.36,15.0508 -16.85,10.0195 -30.08,23.789 -39.71,41.3086 -9.63,17.5078 -14.44,36.9687 -14.44,58.3676 0,21.386 4.81,40.769 14.44,58.164 9.63,17.375 22.86,31.086 39.71,41.113 16.85,10.027 35.97,15.039 57.36,15.039 17.65,0 33.43,-3.406 47.34,-10.227 13.89,-6.824 25.53,-16.382 34.89,-28.679 v 116.726 h 38.52" /><path
         id="path22"
         style="fill:#100f0d;fill-opacity:1;fill-rule:nonzero;stroke:none"
         d="m 3077.12,223.828 h 38.51 V 5.21484 h -38.51 z m 1.21,39.719 c -4.82,4.539 -7.23,10.281 -7.23,17.242 0,6.953 2.41,12.695 7.23,17.246 4.81,4.543 10.83,6.82 18.05,6.82 7.21,0 13.24,-2.277 18.04,-6.82 4.82,-4.551 7.23,-10.293 7.23,-17.246 0,-6.961 -2.41,-12.703 -7.23,-17.242 -4.8,-4.555 -10.83,-6.828 -18.04,-6.828 -7.22,0 -13.24,2.273 -18.05,6.828" /><path
         id="path24"
         style="fill:#100f0d;fill-opacity:1;fill-rule:nonzero;stroke:none"
         d="m 3303.95,50.9453 c 15.91,11.4961 24.67,29.9453 26.27,55.3557 h -56.95 c -49.75,0 -74.61,-12.4338 -74.61,-37.3088 0,-10.9649 4.61,-19.5899 13.84,-25.8672 9.23,-6.2891 21.45,-9.4258 36.7,-9.4258 20.59,0 38.84,5.7461 54.75,17.2461 z M 3397.22,38.918 V 6.82422 c -4.82,-2.13672 -11.11,-3.21094 -18.86,-3.21094 -12.03,0 -22.46,3.06641 -31.28,9.23052 -8.83,6.1406 -14.04,15.0976 -15.65,26.875 -8.82,-12.8438 -20.8,-22.6094 -35.9,-29.2891 C 3280.42,3.75 3263.91,0.402344 3246,0.402344 c -24.34,0 -44.73,5.874996 -61.18,17.656256 -16.44,11.7578 -24.66,28.3398 -24.66,49.7344 0,21.9258 9.42,39.109 28.27,51.543 18.85,12.434 46.86,18.652 84.04,18.652 h 57.75 v 2.813 c 0,16.847 -5.68,29.941 -17.04,39.308 -11.36,9.356 -26.68,14.043 -45.93,14.043 -12.3,0 -24.6,-2.011 -36.9,-6.027 -12.3,-4.004 -23.01,-9.758 -32.09,-17.246 L 3177,198.953 c 11.5,9.895 25.4,17.317 41.72,22.27 16.31,4.949 33.02,7.422 50.14,7.422 30.48,0 54.62,-7.618 72.4,-22.864 17.78,-15.246 26.67,-36.238 26.67,-62.976 V 54.5508 c 0,-11.7695 6.02,-17.6485 18.06,-17.6485 4.27,0 8.01,0.668 11.23,2.0157" /></g></g></svg>